<svg width="376" height="362" viewBox="0 0 376 362" fill="none" xmlns="http://www.w3.org/2000/svg">
<line x1="9.29816" y1="37.5986" x2="359.298" y2="297.599" stroke="#6E4E7F"/>
<line x1="11.3007" y1="3.60055" x2="359.301" y2="265.601" stroke="#6E4E7F"/>
<line x1="9.29963" y1="70.5997" x2="359.3" y2="332.6" stroke="#6E4E7F"/>
<line x1="9.29668" y1="109.598" x2="340.297" y2="353.598" stroke="#6E4E7F"/>
<line x1="9.29443" y1="149.596" x2="289.294" y2="353.596" stroke="#6E4E7F"/>
<line x1="9.2966" y1="227.597" x2="180.297" y2="353.597" stroke="#6E4E7F"/>
<line x1="9.2846" y1="272.589" x2="126.285" y2="353.589" stroke="#6E4E7F"/>
<line x1="9.26891" y1="316.578" x2="67.2689" y2="353.578" stroke="#6E4E7F"/>
<line x1="9.29334" y1="190.595" x2="234.293" y2="353.595" stroke="#6E4E7F"/>
<line x1="101.31" y1="3.60779" x2="359.31" y2="207.608" stroke="#6E4E7F"/>
<line x1="143.313" y1="3.60974" x2="359.313" y2="176.61" stroke="#6E4E7F"/>
<line x1="186.313" y1="3.61023" x2="359.313" y2="142.61" stroke="#6E4E7F"/>
<line x1="227.306" y1="3.60436" x2="359.306" y2="105.604" stroke="#6E4E7F"/>
<line x1="272.311" y1="3.60825" x2="359.311" y2="72.6082" stroke="#6E4E7F"/>
<line x1="316.31" y1="3.60779" x2="359.31" y2="37.6078" stroke="#6E4E7F"/>
<line x1="59.3075" y1="3.60575" x2="359.307" y2="237.606" stroke="#6E4E7F"/>
<line x1="355.372" y1="7.46845" x2="42.3717" y2="355.334" stroke="#6E4E7F"/>
<line x1="374.777" y1="27.727" x2="77.3702" y2="355.336" stroke="#6E4E7F"/>
<line x1="321.068" y1="4.33306" x2="9.37291" y2="353.333" stroke="#6E4E7F"/>
<line x1="277.373" y1="8.85562" x2="9.37317" y2="309.333" stroke="#6E4E7F"/>
<line y1="-0.5" x2="355.457" y2="-0.5" transform="matrix(-0.661793 0.749686 -0.753256 -0.657728 236.002 4.80785)" stroke="#6E4E7F"/>
<line x1="151.887" y1="5.40705" x2="10.8911" y2="164.269" stroke="#6E4E7F"/>
<line x1="107.086" y1="1.30786" x2="9.38773" y2="121.316" stroke="#6E4E7F"/>
<line x1="59.3892" y1="4.31388" x2="9.3892" y2="66.3139" stroke="#6E4E7F"/>
<line y1="-0.5" x2="285.071" y2="-0.5" transform="matrix(-0.659764 0.751472 -0.755028 -0.655692 193.978 1)" stroke="#6E4E7F"/>
<line x1="359.355" y1="135.352" x2="143.355" y2="353.352" stroke="#6E4E7F"/>
<line x1="366.245" y1="161.347" x2="174.36" y2="360.759" stroke="#6E4E7F"/>
<line x1="363.485" y1="202.345" x2="217.362" y2="355.345" stroke="#6E4E7F"/>
<line x1="361.919" y1="245.344" x2="259.363" y2="353.344" stroke="#6E4E7F"/>
<line x1="362.627" y1="282.353" x2="289.354" y2="355.668" stroke="#6E4E7F"/>
<line x1="359.358" y1="317.349" x2="324.358" y2="353.349" stroke="#6E4E7F"/>
<line x1="370.417" y1="75.5349" x2="110.162" y2="353.066" stroke="#6E4E7F"/>
</svg>
